<svg xmlns="http://www.w3.org/2000/svg" width="35" height="35" viewBox="0 0 35 35">
  <g id="그룹_49953" data-name="그룹 49953" transform="translate(-2005.5 -1384.5)">
    <g id="사각형_26733" data-name="사각형 26733" transform="translate(2005.5 1384.5)" fill="#fff" stroke="#cecece" stroke-width="1">
      <rect width="35" height="35" rx="6" stroke="none"/>
      <rect x="0.5" y="0.5" width="34" height="34" rx="5.5" fill="none"/>
    </g>
    <path id="Icon_weather-refresh" data-name="Icon weather-refresh" d="M11.724,21.04a7.882,7.882,0,0,0,1.1,4.048,8.026,8.026,0,0,0,2.951,2.935A7.812,7.812,0,0,0,19.8,29.1a7.981,7.981,0,0,0,4.063-1.066,7.791,7.791,0,0,0,2.92-2.92,8.022,8.022,0,0,0,1.066-4.063,1.318,1.318,0,0,0-.371-.942,1.181,1.181,0,0,0-.911-.386,1.319,1.319,0,0,0-1.313,1.329,5.486,5.486,0,0,1-5.484,5.484,5.159,5.159,0,0,1-3.816-1.607,5.328,5.328,0,0,1-1.576-3.878,5.708,5.708,0,0,1,1.22-3.569,3.841,3.841,0,0,1,2.843-1.7l-.587.572a1.318,1.318,0,0,0-.371.9,1.362,1.362,0,0,0,.371.927,1.278,1.278,0,0,0,1.869,0l2.843-2.812a1.129,1.129,0,0,0,.371-.958,1.029,1.029,0,0,0-.371-.881l-2.812-2.889a1.323,1.323,0,0,0-1.854.015,1.261,1.261,0,0,0-.386.927,1.293,1.293,0,0,0,.371.942l.587.556a7.947,7.947,0,0,0-4.82,2.781A7.773,7.773,0,0,0,11.724,21.04Z" transform="translate(2003.223 1382.418)" fill="#7e8083"/>
  </g>
</svg>
