<svg xmlns="http://www.w3.org/2000/svg" width="32" height="32" viewBox="0 0 32 32">
  <g id="그룹_49943" data-name="그룹 49943" transform="translate(-704 -491)">
    <g id="그룹_49942" data-name="그룹 49942" transform="translate(0 85)">
      <g id="사각형_28314" data-name="사각형 28314" transform="translate(704 406)" fill="#fff" stroke="#707070" stroke-width="1" opacity="0">
        <rect width="32" height="32" stroke="none"/>
        <rect x="0.5" y="0.5" width="31" height="31" fill="none"/>
      </g>
    </g>
    <path id="Icon_awesome-lock" data-name="Icon awesome-lock" d="M10.206,5.715H9.593V3.878a3.878,3.878,0,0,0-7.756,0V5.715H1.225A1.225,1.225,0,0,0,0,6.94v4.9a1.225,1.225,0,0,0,1.225,1.225h8.981a1.225,1.225,0,0,0,1.225-1.225V6.94A1.225,1.225,0,0,0,10.206,5.715Zm-2.654,0H3.878V3.878a1.837,1.837,0,1,1,3.674,0Z" transform="translate(714 500)" fill="#868686"/>
  </g>
</svg>
