<?xml version="1.0" standalone="no"?>
<!DOCTYPE svg PUBLIC "-//W3C//DTD SVG 20010904//EN"
 "http://www.w3.org/TR/2001/REC-SVG-20010904/DTD/svg10.dtd">
<svg version="1.0" xmlns="http://www.w3.org/2000/svg"
 width="321.000000pt" height="600.000000pt" viewBox="0 0 321.000000 600.000000"
 preserveAspectRatio="xMidYMid meet">

<g transform="translate(0.000000,600.000000) scale(0.100000,-0.100000)"
fill="#000000" stroke="none">
<path d="M180 5908 c-18 -13 -43 -36 -54 -51 l-21 -28 0 -2829 0 -2829 21 -28
c11 -15 36 -38 54 -51 l33 -22 1411 2 1411 3 31 22 c17 13 39 38 48 57 15 31
16 272 16 2846 0 2574 -1 2815 -16 2846 -9 19 -31 44 -48 57 l-31 22 -1411 3
-1411 2 -33 -22z m2857 -28 c69 -41 63 216 63 -2882 0 -2762 0 -2803 -20
-2835 -41 -68 66 -63 -1466 -63 -1374 0 -1387 0 -1419 20 -71 44 -65 -203 -65
2880 0 1944 3 2787 11 2807 13 34 47 72 74 83 11 5 643 9 1405 9 1357 1 1386
1 1417 -19z"/>
<path d="M397 5602 c-20 -21 -37 -42 -37 -48 0 -5 20 -29 44 -53 55 -54 76
-37 22 18 l-36 37 35 34 c19 19 35 38 35 42 0 19 -29 5 -63 -30z"/>
</g>
</svg>
